# 3ds Max Wavefront OBJ Exporter v0.97b - (c)2007 guruware
# File Created: 27.03.2011 18:02:27

mtllib malp.mtl

#
# object halfclaw
#

v  0.0437 -0.0001 0.0477
v  0.0437 0.0158 0.0663
v  -0.0431 0.0158 0.0663
v  0.0218 -0.0001 0.0477
v  -0.0431 -0.0001 0.0477
v  -0.0431 0.0178 0.1455
v  0.0437 0.0178 0.1455
v  -0.0431 0.0099 0.1544
v  0.0437 0.0099 0.1544
v  -0.0431 0.0097 0.2107
v  0.0437 0.0097 0.2107
v  -0.0431 0.0264 0.2067
v  0.0437 0.0264 0.2067
v  -0.0431 0.0403 0.0511
v  -0.0431 0.0354 0.1956
v  0.0437 0.0354 0.1956
v  0.0437 0.0403 0.0511
v  -0.0431 0.0749 0.0257
v  0.0437 0.0749 0.0257
v  -0.0431 0.0382 0.0001
v  0.0437 0.0382 0.0001
v  0.0437 -0.0001 0.0001
v  -0.0110 -0.0001 0.0001
v  -0.0431 -0.0001 0.0001
v  -0.0431 0.0308 0.2039
v  -0.0431 0.0335 0.2005
v  0.0437 0.0335 0.2005
v  0.0437 0.0308 0.2039
# 28 vertices

vn -0.0000 -0.8167 0.5770
vn -0.0000 -0.9521 0.3058
vn 0.0000 -0.9497 -0.3131
vn 0.0000 -0.9458 -0.3247
vn -0.0000 -0.6021 0.7984
vn 0.0000 -0.6021 0.7984
vn 0.0000 0.4564 0.8898
vn 0.0000 0.4563 0.8898
vn -0.0000 0.9991 0.0433
vn -0.0000 0.9840 0.1780
vn -0.0000 0.6600 0.7512
vn 0.0000 0.6360 -0.7717
vn 0.0000 -0.0155 -0.9999
vn 0.0000 0.5677 -0.8233
vn 0.0000 0.5661 -0.8243
vn 0.0000 0.5645 -0.8255
vn -0.9997 -0.0240 -0.0003
vn 0.9995 -0.0310 -0.0004
vn 0.9888 -0.1495 -0.0021
vn -1.0000 -0.0027 -0.0000
vn -0.9999 -0.0152 -0.0002
vn -1.0000 -0.0000 0.0000
vn -1.0000 0.0000 0.0000
vn -1.0000 -0.0000 -0.0000
vn -0.9897 0.1429 0.0020
vn -0.9996 0.0287 0.0004
vn 0.9997 0.0239 0.0003
vn 1.0000 0.0029 0.0000
vn 0.9999 0.0152 0.0002
vn 1.0000 0.0000 -0.0000
vn 1.0000 -0.0000 -0.0000
vn 1.0000 0.0000 0.0000
vn -0.0000 0.6683 0.7439
vn 0.0000 0.6913 0.7226
vn -0.0000 -0.4694 0.8830
vn -0.0000 -0.4624 0.8867
vn 0.0000 0.9164 -0.4002
vn 0.0000 0.9179 -0.3967
vn -0.0000 -0.9999 -0.0143
vn 0.0000 -0.9999 -0.0143
vn 0.0000 0.9387 -0.3446
vn 0.0000 0.7243 0.6895
vn -0.0000 0.8968 0.4425
vn 0.0000 0.8968 0.4425
# 44 vertex normals

vt 0.3465 0.5353 0.0000
vt 0.3184 0.5353 0.0000
vt 0.3184 0.6632 0.0000
vt 0.3465 0.5675 0.0000
vt 0.3465 0.6632 0.0000
vt 0.2016 0.6632 0.0000
vt 0.2016 0.5353 0.0000
vt 0.1884 0.6632 0.0000
vt 0.1884 0.5353 0.0000
vt 0.1054 0.6632 0.0000
vt 0.1054 0.5353 0.0000
vt 0.1114 0.6632 0.0000
vt 0.1114 0.5353 0.0000
vt 0.3409 0.6632 0.0000
vt 0.1278 0.6632 0.0000
vt 0.1278 0.5353 0.0000
vt 0.3409 0.5353 0.0000
vt 0.3785 0.6632 0.0000
vt 0.3785 0.5353 0.0000
vt 0.4160 0.6632 0.0000
vt 0.4160 0.5353 0.0000
vt 0.4160 0.6159 0.0000
vt 0.2901 0.7005 0.0000
vt 0.1159 0.9066 0.0000
vt 0.2761 0.7874 0.0000
vt 0.3168 0.7875 0.0000
vt 0.3759 0.7379 0.0000
vt 0.4161 0.7858 0.0000
vt 0.1229 0.9724 0.0000
vt 0.1456 0.9890 0.0000
vt 0.1538 0.9916 0.0000
vt 0.1688 0.9886 0.0000
vt 0.1607 0.9915 0.0000
vt 0.1935 0.9132 0.0000
vt 0.2129 0.9137 0.0000
vt 0.3097 0.8275 0.0000
vt 0.3546 0.8421 0.0000
vt 0.4228 0.8587 0.0000
vt 0.1387 0.6632 0.0000
vt 0.1387 0.5353 0.0000
vt 0.1156 0.5353 0.0000
vt 0.1205 0.5353 0.0000
vt 0.1205 0.6632 0.0000
vt 0.1156 0.6632 0.0000
# 44 texture coords

g halfclaw
usemtl Arm
s 2
f 1/1/1 2/2/2 3/3/2 4/4/1 
f 4/4/1 3/3/2 5/5/1 
f 6/6/3 3/3/2 2/2/2 7/7/3 
f 8/8/4 6/6/3 7/7/3 9/9/4 
f 10/10/5 8/8/4 9/9/4 11/11/6 
f 12/12/7 10/10/5 11/11/6 13/13/8 
f 14/14/9 15/15/10 16/16/10 17/17/9 
s 4
f 18/18/11 14/14/11 17/17/11 19/19/11 
s 2
f 20/20/12 18/18/12 19/19/12 21/21/12 
s 4
f 21/21/13 22/21/14 23/22/15 24/20/16 
f 21/21/13 24/20/16 20/20/13 
s 16
f 24/23/17 5/24/18 5/25/19 5/26/20 
f 24/27/21 24/23/17 5/26/20 20/28/22 
f 10/29/22 12/30/23 25/31/24 15/32/22 
f 25/31/24 26/33/23 15/32/22 
f 8/34/22 10/29/22 15/32/22 6/35/22 
f 3/36/22 6/35/22 15/32/22 14/37/22 
f 5/26/20 3/36/22 14/37/22 20/28/22 
f 20/28/22 14/37/22 18/38/23 
f 1/25/25 1/24/26 22/23/27 1/26/28 
f 1/26/28 22/23/27 22/27/29 21/28/30 
f 21/28/30 19/38/31 17/37/30 1/26/28 
f 17/37/30 16/32/30 27/33/31 13/30/30 
f 27/33/31 28/31/32 13/30/30 
f 13/30/30 11/29/30 9/34/30 7/35/30 
f 13/30/30 7/35/30 2/36/30 17/37/30 
f 1/26/28 17/37/30 2/36/30 
s 8
f 5/3/33 1/2/34 1/1/35 4/4/35 
f 5/3/33 4/4/35 5/5/36 
f 1/2/34 5/3/33 5/39/37 1/40/38 
s 2
f 1/40/39 5/39/39 24/18/39 22/19/40 
s 4
f 22/19/41 24/18/41 24/20/16 23/22/15 
f 22/21/14 22/19/41 23/22/15 
s 2
f 28/41/42 27/42/43 26/43/44 25/44/42 
f 13/13/8 28/41/42 25/44/42 12/12/7 
f 27/42/43 16/16/10 15/15/10 26/43/44 
# 28 polygons - 8 triangles

