# 3ds Max Wavefront OBJ Exporter v0.97b - (c)2007 guruware
# File Created: 29.03.2011 20:34:52

mtllib horizon.mtl

#
# object horizon
#

v  1.8318 0.6667 -0.0000
v  1.4933 1.2530 -0.0000
v  0.9747 1.6882 -0.0000
v  1.8318 -0.6667 -0.0000
v  0.3385 1.9197 -0.0000
v  -0.3385 1.9197 -0.0000
v  -1.4933 1.2530 -0.0000
v  -0.9747 1.6882 -0.0000
v  -1.8318 0.6667 -0.0000
v  -1.9494 0.0000 -0.0000
v  -1.4933 -1.2530 -0.0000
v  -1.8318 -0.6667 -0.0000
v  -0.9747 -1.6882 -0.0000
v  -0.3385 -1.9197 -0.0000
v  0.9747 -1.6882 -0.0000
v  0.3385 -1.9197 -0.0000
v  1.4933 -1.2530 -0.0000
v  1.9494 0.0000 -0.0000
# 18 vertices

vn 0.0000 0.0000 1.0000
# 1 vertex normals

vt 0.3290 0.9698 0.2500
vt 0.1786 0.8830 0.2500
vt 0.0670 0.7500 0.2500
vt 0.6710 0.9698 0.2500
vt 0.0076 0.5868 0.2500
vt 0.0076 0.4132 0.2500
vt 0.1786 0.1170 0.2500
vt 0.0670 0.2500 0.2500
vt 0.3290 0.0302 0.2500
vt 0.5000 0.0000 0.2500
vt 0.8214 0.1170 0.2500
vt 0.6710 0.0302 0.2500
vt 0.9330 0.2500 0.2500
vt 0.9924 0.4132 0.2500
vt 0.9330 0.7500 0.2500
vt 0.9924 0.5868 0.2500
vt 0.8214 0.8830 0.2500
vt 0.5000 1.0000 0.2500
# 18 texture coords

g horizon
f 1/1/1 2/2/1 3/3/1 4/4/1 
f 3/3/1 5/5/1 6/6/1 7/7/1 
f 6/6/1 8/8/1 7/7/1 
f 7/7/1 9/9/1 10/10/1 11/11/1 
f 10/10/1 12/12/1 11/11/1 
f 11/11/1 13/13/1 14/14/1 15/15/1 
f 14/14/1 16/16/1 15/15/1 
f 7/7/1 11/11/1 15/15/1 3/3/1 
f 15/15/1 17/17/1 4/4/1 3/3/1 
f 18/18/1 1/1/1 4/4/1 
# 6 polygons - 4 triangles

